<svg id="Livello_1" data-name="Livello 1" xmlns="http://www.w3.org/2000/svg" viewBox="0 0 217.57 181.33"><defs><style>.cls-1{fill:#fff;stroke:#000;}.cls-1,.cls-4{stroke-miterlimit:10;}.cls-2{fill:#f4971a;}.cls-3{fill:#a76aa9;}.cls-4{fill:none;stroke:#1d1d1b;stroke-width:0.75px;}</style></defs><title>ft_logo</title><rect class="cls-1" x="0.5" y="0.5" width="216.57" height="180.33"/><rect class="cls-2" x="21.06" y="15.28" width="14.17" height="145.92"/><rect class="cls-2" x="21.27" y="70.85" width="53.61" height="14.17"/><rect class="cls-2" x="141.33" y="15.28" width="14.17" height="145.92"/><path class="cls-2" d="M35.09,157c.14-1,2.65-9.3,2.85-10.09l7.29-25.14h7.61l7.54,25.42c.26.9,2.71,9,2.78,9.75h.26c.07-.73,2.59-9.18,2.85-10.2l7.48-25H79L67.08,161.27h-7.7L52,136c-.33-1.13-2.78-9.36-2.91-10.2H48.8c-.13.9-2.45,9.13-2.71,9.86l-7.55,25.59H30.92l-7.17-39.48h5.84q1.14,12.19,2.26,24.39.75,2.65,1.56,5.39T35.09,157Z" transform="translate(0.12 0.12)"/><path class="cls-3" d="M94.73,161.27V121.76h32.46v4H101.71v13.47h22.42v4H101.71v14h26.67v4Z" transform="translate(0.12 0.12)"/><path class="cls-2" d="M187.29,150.11c0,6.43-5.93,11.16-20.5,11.16H148.21V121.76h18.67c9.42,0,17.36,2.65,17.36,10.09,0,4.79-3.4,8.12-8.29,8.91V141C182.32,141.49,187.29,144.38,187.29,150.11Zm-21.72-24.4H155v13.67h10.91c7.76,0,11.43-2.14,11.43-7.1C177.38,127.57,172.81,125.71,165.57,125.71Zm14.66,24.67c0-5.58-6.11-7-13.26-7H155v14h12.31C176.21,157.38,180.23,155.24,180.23,150.38Z" transform="translate(0.12 0.12)"/><rect class="cls-3" x="21.27" y="15.52" width="172.14" height="14.17"/><rect class="cls-4" x="0.5" y="0.5" width="216.57" height="180.33"/></svg>