<svg id="Livello_1" data-name="Livello 1" xmlns="http://www.w3.org/2000/svg" viewBox="0 0 657.43 814.08"><defs><style>.cls-1{fill:#e44d26;}.cls-2{fill:#f16529;}.cls-3{fill:#ebebeb;}.cls-4{fill:#fff;}</style></defs><title>html5-logo-01</title><path d="M181.11,172.48h23v22.8h21.2v-22.8h23v69h-23v-23h-21v23h-23.2m97.6-46h-20.3v-23h63.7v23h-20.4v46h-23m53.5-69h24.1l14.8,24.3,14.8-24.3H410v69H387v-34.2l-16.1,24.8-16.1-24.8v34.2H332.2m89.2-69h23v46.2H477v22.8H421.4"/><path class="cls-1" d="M180.31,643.48l-33-370.4h362.8l-33,370.2-148.7,41.2"/><path class="cls-2" d="M328.71,653V303.48H477l-28.3,316"/><path class="cls-3" d="M214.71,348.78h114v45.4h-64.2l4.2,46.5h60V486H227.11m2,22.8h45.6l3.2,36.3,50.8,13.6v47.4l-93.2-26"/><path class="cls-4" d="M442.31,348.78H328.51v45.4h109.6m-4.1,46.5H328.51v45.4h56l-5.3,59-50.7,13.6v47.2l93-25.8"/></svg>